# xmcd
#
# Track frame offsets: 
#        150
#        29446
#        48340
#        63000
#        82920
#        105119
#        126172
#        145477
#        170474
#        188015
#        206950
#        227442
#        245263
#        263630
#
# Disc length: 3728 seconds
#
# Revision: 0
# Processed by: cddbd v1.4PL0 Copyright (c) Steve Scherf et al.
# Submitted via: ExactAudioCopy v0.90b4
#
DISCID=b10e8e0e
DTITLE=Jimmy Johnson and Luther Johnson Jr. - Ma Bea's Rock
DYEAR=2001
DGENRE=Blues
TTITLE0=So Many Roads
TTITLE1=Crosscut Saw
TTITLE2=Ma Bea's Rock
TTITLE3=Feel So Bad
TTITLE4=I Believe My Time Ain't Long
TTITLE5=All Your Love
TTITLE6=You Gotta Have Soul
TTITLE7=My Own Fault
TTITLE8=Get Ready Here I Come [#]
TTITLE9=Same Old Blues [#]
TTITLE10=Got a Mind to Travel [#]
TTITLE11=Can You Use a Man Like Me [#]
TTITLE12=I Got to Be Crazy [#]
TTITLE13=Got Papers on You Baby [#]
EXTD=
EXTT0=
EXTT1=
EXTT2=
EXTT3=
EXTT4=
EXTT5=
EXTT6=
EXTT7=
EXTT8=
EXTT9=
EXTT10=
EXTT11=
EXTT12=
EXTT13=
PLAYORDER=
